<svg width="599" height="927" viewBox="0 0 599 927" fill="none" xmlns="http://www.w3.org/2000/svg">
<path d="M590 3C590 38.966 596 74.6363 596 110.444C596 145.367 591.355 175.964 575.889 208C563.75 233.144 544.764 247.594 519.111 257C493.312 266.46 460.046 261 432.889 261C411.64 261 389.31 268.96 367.889 271C352.582 272.458 337.88 276.632 322.444 277C309.26 277.314 295.29 278.185 282.222 280C257.929 283.374 233.535 287.582 209.111 289.444C177.457 291.859 147.461 302.924 116.667 309.889C85.1433 317.019 59.2329 337.095 36.1111 359C17.2075 376.909 10.9598 397.953 8 423.111C2.90866 466.388 12.2172 511.806 4.44444 554.556C2.00977 567.946 5.24887 580.249 14.8889 589.889C21.208 596.208 25.955 605 35 605C46.6253 605 57.0038 605.613 68 609.889C76.9226 613.359 87.0852 612.89 96.4444 613C120.163 613.279 143.635 617.91 167.333 619C195.078 620.276 222.669 621 250.444 621C266.249 621 282.427 622.103 297.556 616.556C305.065 613.802 309.509 612.41 318.444 613.222C346.487 615.772 374.217 623.225 402.222 626.556C428.787 629.715 455.278 632.189 481.556 637.444C495.966 640.326 511.837 641.453 525.778 645.889C547.009 652.644 567.095 659.723 573 684C586.781 740.653 568.65 799.19 576.444 856.556C576.861 859.621 586.035 897.281 580.222 898.111C569.196 899.686 554.708 894.095 544 892C515.941 886.51 487.844 883.769 460.222 876C419.83 864.64 376.054 857.945 334 857C276.96 855.718 217.949 847.115 161.111 857C144.555 859.879 128.27 860.488 112 864.556C103.834 866.597 91.8143 866.297 85.5556 872.556C79.4277 878.683 76 884.464 76 893C76 899.16 71.113 925.443 76 923" stroke="#849AD5" stroke-width="6" stroke-linecap="round"/>
</svg>
